<svg width="21" height="20" viewBox="0 0 21 20" fill="none" xmlns="http://www.w3.org/2000/svg">
<path d="M16.7559 8.19992C16.7559 5.09992 19.3559 3.59992 19.4559 3.49992C17.9559 1.39992 15.7559 1.09992 14.9559 0.999922C13.0559 0.799922 11.1559 2.09992 10.2559 2.09992C9.2559 2.09992 7.7559 0.999922 6.1559 0.999922C4.0559 0.999922 2.1559 2.19992 1.0559 4.09992C-1.1441 7.89992 0.455899 13.4999 2.5559 16.5999C3.6559 18.0999 4.8559 19.7999 6.4559 19.6999C8.0559 19.5999 8.6559 18.6999 10.5559 18.6999C12.4559 18.6999 12.9559 19.6999 14.6559 19.6999C16.3559 19.6999 17.4559 18.1999 18.4559 16.6999C19.6559 14.9999 20.1559 13.2999 20.1559 13.1999C20.0559 13.0999 16.7559 11.8999 16.7559 8.19992Z" fill="#31C5A1"/>
</svg>
