<svg width="21" height="20" viewBox="0 0 21 20" fill="none" xmlns="http://www.w3.org/2000/svg">
<rect width="21" height="20" fill="#E5E5E5"/>
<g clip-path="url(#clip0_0:1)">
<rect width="1440" height="2313" transform="translate(-387 -501)" fill="white"/>
<path d="M123 -16H-16C-18.2091 -16 -20 -14.2091 -20 -12V30C-20 32.2091 -18.2091 34 -16 34H123C125.209 34 127 32.2091 127 30V-12C127 -14.2091 125.209 -16 123 -16Z" fill="#EEEAFF"/>
<path d="M16.7559 8.19992C16.7559 5.09992 19.3559 3.59992 19.4559 3.49992C17.9559 1.39992 15.7559 1.09992 14.9559 0.999922C13.0559 0.799922 11.1559 2.09992 10.2559 2.09992C9.25589 2.09992 7.75589 0.999922 6.15589 0.999922C4.05589 0.999922 2.1559 2.19992 1.0559 4.09992C-1.1441 7.89992 0.455896 13.4999 2.5559 16.5999C3.6559 18.0999 4.8559 19.7999 6.45589 19.6999C8.05589 19.5999 8.6559 18.6999 10.5559 18.6999C12.4559 18.6999 12.9559 19.6999 14.6559 19.6999C16.3559 19.6999 17.4559 18.1999 18.4559 16.6999C19.6559 14.9999 20.1559 13.2999 20.1559 13.1999C20.0559 13.0999 16.7559 11.8999 16.7559 8.19992Z" fill="#582EFF"/>
<path d="M13.656 -1C14.456 -2.1 15.056 -3.5 14.956 -5C13.756 -4.9 12.156 -4.2 11.356 -3.1C10.556 -2.2 9.85601 -0.699999 10.056 0.700001C11.356 0.800001 12.756 0 13.656 -1Z" fill="#582EFF"/>
</g>
<defs>
<clipPath id="clip0_0:1">
<rect width="1440" height="2313" fill="white" transform="translate(-387 -501)"/>
</clipPath>
</defs>
</svg>
